<svg id="Layer_5" enable-background="new 0 0 64 64" height="512" viewBox="0 0 64 64" width="512" xmlns="http://www.w3.org/2000/svg" xmlns:xlink="http://www.w3.org/1999/xlink"><linearGradient id="SVGID_1_" gradientUnits="userSpaceOnUse" x1="32" x2="32" y1="63" y2="1"><stop offset="0" stop-color="#9f2fff"/><stop offset="1" stop-color="#0bb1d3"/></linearGradient><path d="m54 21c-3.443 0-6.733 1.645-8.8 4.4l-.2.267v5.389c0 2.174-1.77 3.944-3.944 3.944-1.504 0-2.855-.835-3.527-2.18l-.911-1.82h-2.618l1.4-1.867c.388-.516.601-1.155.601-1.8v-19.333c0-1.302-.839-2.402-2-2.816v-1.184c0-1.654-1.346-3-3-3h-16.001c-1.654 0-3 1.346-3 3v1.184c-1.161.414-2 1.514-2 2.816v19.333c0 .645.213 1.284.601 1.8l1.399 1.867h-2.618l-2 4h-1.382c-2.757 0-5 2.243-5 5v14c0 2.757 2.243 5 5 5h7v1c0 1.654 1.346 3 3 3h14c1.654 0 3-1.346 3-3v-1h25c2.757 0 5-2.243 5-5v-28.333l-.2-.267c-2.067-2.755-5.357-4.4-8.8-4.4zm-28 20h-6c-1.654 0-3 1.346-3 3v1.586l-2-2v-9.171l.172-.172c2.091-2.091 4.871-3.243 7.828-3.243s5.737 1.152 7.828 3.243l.172.172v9.171l-2 2v-1.586c0-1.654-1.346-3-3-3zm1 3v8c0 .551-.448 1-1 1h-6c-.552 0-1-.449-1-1v-8c0-.551.448-1 1-1h6c.552 0 1 .449 1 1zm4-12.252c-2.281-1.775-5.063-2.748-8-2.748s-5.719.973-8 2.747v-3.333l.172-.172c2.091-2.09 4.871-3.242 7.828-3.242s5.737 1.152 7.828 3.243l.172.172zm-19-12.748v-8h2v8zm4-8h2v8h-2zm4 0h2v8h-2zm4 0h2v8h-2zm4 0h2v8h-2zm4 0h2v8h-2zm-17-8h16c.552 0 1 .449 1 1v1h-18v-1c0-.551.448-1 1-1zm-2 4h20c.552 0 1 .449 1 1v1h-22v-1c0-.551.448-1 1-1zm-1 14h22v6.333c0 .214-.071.427-.2.6l-.8 1.067v-1.414l-.758-.757c-2.469-2.469-5.751-3.829-9.242-3.829s-6.773 1.36-9.242 3.828l-.758.757v1.415l-.8-1.067c-.129-.172-.2-.385-.2-.6zm-9 24h1c.552 0 1 .449 1 1v6c0 .551-.448 1-1 1h-1zm28 15c0 .551-.448 1-1 1h-14c-.552 0-1-.449-1-1v-1h16zm27-3h-52c-1.302 0-2.402-.839-2.816-2h.816c1.654 0 3-1.346 3-3v-6c0-1.654-1.346-3-3-3h-1v-3c0-1.654 1.346-3 3-3h2.618l2-4h2.382v11.414l4 4v3.586c0 1.654 1.346 3 3 3h6c1.654 0 3-1.346 3-3v-3.586l4-4v-11.414h2.382l.357.714c1.013 2.027 3.05 3.286 5.317 3.286 3.277 0 5.944-2.667 5.944-5.944v-4.712c1.698-2.1 4.291-3.344 7-3.344s5.302 1.244 7 3.343v16.657h-1c-1.654 0-3 1.346-3 3v6c0 1.654 1.346 3 3 3h.816c-.414 1.161-1.514 2-2.816 2zm2-4c-.552 0-1-.449-1-1v-6c0-.551.448-1 1-1h1v8zm-6-14c2.757 0 5-2.243 5-5s-2.243-5-5-5-5 2.243-5 5 2.243 5 5 5zm0-8c1.654 0 3 1.346 3 3s-1.346 3-3 3-3-1.346-3-3 1.346-3 3-3zm5-4h-10v-2h10zm-18 14c-3.859 0-7 3.14-7 7s3.141 7 7 7 7-3.14 7-7-3.141-7-7-7zm0 12c-2.757 0-5-2.243-5-5 0-1.017.309-1.963.833-2.753l1.468 1.468c-.187.391-.301.823-.301 1.285 0 1.654 1.346 3 3 3s3-1.346 3-3-1.346-3-3-3c-.462 0-.894.113-1.285.301l-1.467-1.468c.79-.524 1.735-.833 2.752-.833 2.757 0 5 2.243 5 5s-2.243 5-5 5zm0-6c.552 0 1 .449 1 1s-.448 1-1 1-1-.449-1-1 .448-1 1-1zm11-6c-1.654 0-3 1.346-3 3s1.346 3 3 3 3-1.346 3-3-1.346-3-3-3zm0 4c-.552 0-1-.449-1-1s.448-1 1-1 1 .449 1 1-.448 1-1 1z" fill="url(#SVGID_1_)"/></svg>